<?xml version="1.0" encoding="UTF-8"?>
<svg width="512" height="512" viewBox="90 40 320 400" xmlns="http://www.w3.org/2000/svg" fill="none" stroke="#2979FF" stroke-width="24" stroke-linecap="round" stroke-linejoin="round">
  <!-- Base document with folded corner -->
  <path d="M128 96h192l64 64v224c0 17.7-14.3 32-32 32H128c-17.7 0-32-14.3-32-32V128c0-17.7 14.3-32 32-32z"/>
  <polyline points="320,96 320,160 384,160"/>

  <!-- Paperclip on top -->
  <path d="M224 64c-26.5 0-48 21.5-48 48v64c0 17.7 14.3 32 32 32s32-14.3 32-32V128"/>
  
  <!-- Text lines -->
  <line x1="176" y1="256" x2="304" y2="256"/>
  <line x1="176" y1="304" x2="272" y2="304"/>
</svg>